<svg xmlns="http://www.w3.org/2000/svg" data-name="Layer 1" viewBox="0 0 100 125" x="0px" y="0px"><defs><style>.cls-1,.cls-2{fill:none;stroke:#000;stroke-linejoin:round;stroke-width:2px;}.cls-2{stroke-linecap:round;}</style></defs><title>collections_07</title><path class="cls-1" d="M29.26,47.19H21.63a0.5,0.5,0,0,1-.35-0.85L47.14,20.48a4,4,0,0,1,5.66,0l25.9,25.9a0.5,0.5,0,0,1-.35.85H71.59"/><polyline class="cls-1" points="28.59 39.03 28.59 25.02 36.09 25.02 36.09 31.53"/><path class="cls-1" d="M74.07,80.69H25.9"/><polyline class="cls-1" points="25.9 71.3 25.9 47.19 74.07 47.19 74.07 70.65"/><path class="cls-1" d="M44.11,80.69V63.06A5.87,5.87,0,0,1,50,57.19h0a5.87,5.87,0,0,1,5.87,5.87V80.69"/><rect class="cls-1" x="31.34" y="53.15" width="7.67" height="8.88"/><rect class="cls-1" x="60.97" y="53.15" width="7.67" height="8.88"/><path class="cls-1" d="M59.22,80.69c-0.27,0,.2-2.73.26-2.9,0.69-2.18,2.39-3.2,4.51-3.73a10.82,10.82,0,0,1,1.22-3.32A5.27,5.27,0,0,1,75,73.83a0.77,0.77,0,0,0,.16.59,0.8,0.8,0,0,0,.53.13c3.28,0.08,4.39,3.38,4.19,6.15H59.22Z"/><path class="cls-1" d="M20.22,80.69c-0.27,0,.2-2.73.26-2.9,0.69-2.18,2.39-3.2,4.51-3.73a10.82,10.82,0,0,1,1.22-3.32A5.27,5.27,0,0,1,36,73.83a0.77,0.77,0,0,0,.16.59,0.8,0.8,0,0,0,.53.13c3.28,0.08,4.39,3.38,4.19,6.15H20.22Z"/><line class="cls-2" x1="44.11" y1="68.94" x2="47.92" y2="68.94"/><text x="0" y="115" fill="#000000" font-size="5px" font-weight="bold" font-family="'Helvetica Neue', Helvetica, Arial-Unicode, Arial, Sans-serif">Created by Hare Krishna</text><text x="0" y="120" fill="#000000" font-size="5px" font-weight="bold" font-family="'Helvetica Neue', Helvetica, Arial-Unicode, Arial, Sans-serif">from the Noun Project</text></svg>